<svg id="Layer_1" data-name="Layer 1" xmlns="http://www.w3.org/2000/svg" viewBox="0 0 765.521 707.521">
  <g>
    <path d="M2.611,138.4C22.157,38.592,107.18-26.707,216.075,10.648c83.673,28.7,187.435,104.92,282.063,69.193C651.529,21.928,814.513,165.83,751.7,376.58,694.55,568.346,397.159,715.477,300.92,513.406c-80.2-168.388-158.892-109.245-240.457-180.139C-2.442,278.592-3.983,172.072,2.611,138.4Z" fill="#f3f5fd"></path>
    <path d="M2.611,138.4C22.157,38.592,107.18-26.707,216.075,10.648c83.673,28.7,187.435,104.92,282.063,69.193C651.529,21.928,814.513,165.83,751.7,376.58,694.55,568.346,397.159,715.477,300.92,513.406c-80.2-168.388-158.892-109.245-240.457-180.139C-2.442,278.592-3.983,172.072,2.611,138.4Z" fill="#dee8f5"></path>
    <path d="M177.531,148.626a298.341,298.341,0,0,0,35.309-8.163,40.483,40.483,0,0,1-71.333,12.207A298.751,298.751,0,0,0,177.531,148.626Z" fill="#fdb754"></path>
    <path d="M214.009,121.86a40.2,40.2,0,0,1-.069,14.063,281.115,281.115,0,0,1-37.083,8.76,281.213,281.213,0,0,1-37.9,4.07,40.231,40.231,0,0,1-4.741-13.24,40.667,40.667,0,0,1-.532-8.918,39.426,39.426,0,0,1,.461-4.36,40.49,40.49,0,0,1,75.513-12.922,39.518,39.518,0,0,1,1.885,3.959A40.592,40.592,0,0,1,214.009,121.86Z" fill="#fdb754"></path>
    <g>
      <path d="M247.648,118.518c1.305,7.629-13.876,15.614-34.808,21.945a38.592,38.592,0,0,0,1.1-4.54c19.72-6.246,30.409-12.965,29.765-16.73-.629-3.677-12.379-6.414-32.159-5.921a39.518,39.518,0,0,0-1.885-3.959C230.474,108.572,246.384,111.136,247.648,118.518Z" fill="#fff"></path>
      <path d="M213.94,135.923a38.592,38.592,0,0,1-1.1,4.54,298.341,298.341,0,0,1-35.309,8.163,298.751,298.751,0,0,1-36.024,4.044,38.918,38.918,0,0,1-2.547-3.917,281.213,281.213,0,0,0,37.9-4.07A281.115,281.115,0,0,0,213.94,135.923Z" fill="#fff"></path>
      <path d="M141.507,152.67c-21.846.989-38.818-1.494-40.124-9.123-1.263-7.383,12.9-15.092,32.765-21.312a39.426,39.426,0,0,0-.461,4.36c-18.818,6.112-28.99,12.6-28.361,16.277.644,3.765,12.97,6.546,33.634,5.881A38.918,38.918,0,0,0,141.507,152.67Z" fill="#fff"></path>
    </g>
    <circle cx="320.952" cy="102.01" r="3.228" fill="#fff"></circle>
    <circle cx="324.455" cy="175.031" r="5.87" fill="#fff"></circle>
    <circle cx="574.811" cy="152.781" r="5.87" fill="#fff"></circle>
    <circle cx="492.633" cy="237.626" r="8.353" fill="#fff"></circle>
    <circle cx="226.85" cy="302.154" r="3.039" fill="#fff"></circle>
    <circle cx="89.146" cy="202.254" r="8.553" fill="#fff"></circle>
    <circle cx="106.682" cy="311.751" r="4.762" fill="#fff"></circle>
    <circle cx="686.611" cy="246.121" r="8.495" fill="#fff"></circle>
    <circle cx="602.593" cy="269.766" r="4.304" fill="#fff"></circle>
    <circle cx="101.92" cy="63.683" r="4.304" fill="#fff"></circle>
    <circle cx="356.249" cy="255.661" r="5.655" fill="#fff"></circle>
    <circle cx="178.363" cy="250.369" r="4.248" fill="#fff"></circle>
    <circle cx="623.659" cy="376.281" r="8.935" fill="#fff"></circle>
    <circle cx="732.676" cy="312.245" r="5.256" fill="#fff"></circle>
    <circle cx="318.742" cy="369.819" r="5.713" fill="#fff"></circle>
    <circle cx="411.344" cy="550.444" r="6.75" fill="#fff"></circle>
    <circle cx="621.094" cy="485.145" r="8.495" fill="#fff"></circle>
    <circle cx="537.076" cy="508.79" r="4.304" fill="#fff"></circle>
    <circle cx="500.986" cy="325.308" r="8.935" fill="#fff"></circle>
    <circle cx="686.611" cy="396.955" r="5.256" fill="#fff"></circle>
    <g>
      <g opacity="0.32">
        <path d="M506.962,178.369c-.173-.266-.585-.775-.91-1.184l-1.092-1.314c-.742-.879-1.518-1.76-2.31-2.629-1.575-1.748-3.235-3.454-4.931-5.131a139.568,139.568,0,0,0-10.759-9.542,122.411,122.411,0,0,0-24.5-15.371,98.585,98.585,0,0,0-13.614-5.263,90.153,90.153,0,0,0-14.366-3.2l-1.836-.27c-.614-.082-1.23-.117-1.846-.178l-3.71-.326-3.729-.111c-.623-.011-1.25-.052-1.873-.039l-1.871.058a96.521,96.521,0,0,0-15.018,1.559,97.944,97.944,0,0,1,14.758-4l1.9-.369c.633-.117,1.272-.179,1.909-.271l3.841-.51,3.871-.288c.647-.041,1.3-.108,1.944-.127l1.947-.032a96.132,96.132,0,0,1,15.642.9,107.036,107.036,0,0,1,15.461,3.247,134.663,134.663,0,0,1,29.286,12.329,155.119,155.119,0,0,1,13.551,8.562c2.19,1.554,4.354,3.156,6.477,4.852,1.066.844,2.121,1.706,3.174,2.606l1.582,1.372c.552.5,1.015.9,1.692,1.572l.635.628A9.925,9.925,0,1,1,508.3,180.011,10.469,10.469,0,0,1,506.962,178.369Z" fill="#fff"></path>
      </g>
      <circle cx="516.388" cy="174.007" r="10.23" fill="#fff"></circle>
    </g>
    <g>
      <circle cx="447.025" cy="426.501" r="66.719" fill="#55affc"></circle>
      <g opacity="0.31">
        <circle cx="425.014" cy="422.18" r="12.033" fill="#fff"></circle>
      </g>
      <g opacity="0.31">
        <circle cx="458.475" cy="389.36" r="16.562" fill="#fff"></circle>
      </g>
    </g>
    <g>
      <path d="M653.71,264.524a50.751,50.751,0,0,1-4.545,8.883,50.311,50.311,0,0,1-91.8-36.088,50.747,50.747,0,0,1,8.452-20.241,50.322,50.322,0,0,1,90.945,35.751A50.448,50.448,0,0,1,653.71,264.524Z" fill="#8ddbe0"></path>
      <path d="M656.76,252.829l-90.945-35.751A49.875,49.875,0,0,1,581.5,202.71l73.56,28.917A49.911,49.911,0,0,1,656.76,252.829Z" fill="#d7e8f4"></path>
      <path d="M649.165,273.407a50.12,50.12,0,0,1-14.66,14.77l-76.464-30.058a50.115,50.115,0,0,1-.678-20.8Z" fill="#d7e8f4"></path>
    </g>
  </g>
  <g>
    <g>
      <path d="M204.386,315.464s4.695-7.826,10.695-9.913,5.031,1.715,1.789,4.957-10.658,9.913-10.658,9.913" fill="#EDA59F"></path>
      <path d="M208.3,312.687s11.869-9.658,14-6.674c0,0,6.73,9.1,5.951,11.69-1.174,3.913-15.249,10.631-15.249,10.631Z" fill="#EDA59F"></path>
      <path d="M229.675,290.421a3.131,3.131,0,0,0-4.325-1.6l-13.482,6.907a5.4,5.4,0,0,0-2.535,6.849l.493,1.206,9.247,22.606a3.131,3.131,0,0,0,4.082,1.712h0a3.131,3.131,0,0,0,1.713-4.083l-7.6-18.571a3.131,3.131,0,0,1,2.09-4.21l9.85-2.63a3.131,3.131,0,0,0,2.09-4.21Z" fill="#55affc"></path>
    </g>
    <path d="M159.668,374.375a10.9,10.9,0,0,1-9.622-5.775l-31.383-58.894,19.243-10.254,25.082,47.068,42.6-35.48L219.543,327.8l-52.9,44.055A10.906,10.906,0,0,1,159.668,374.375Z" fill="#2f3235"></path>
    <g>
      <path d="M154.941,329.244s4.7-7.826,10.7-9.913,5.03,1.714,1.788,4.956-10.658,9.913-10.658,9.913" fill="#EDA59F"></path>
      <path d="M180.23,304.2a3.129,3.129,0,0,0-4.324-1.6l-13.482,6.907a5.4,5.4,0,0,0-2.536,6.848l.494,1.207,9.247,22.6a3.131,3.131,0,0,0,4.082,1.713h0a3.131,3.131,0,0,0,1.712-4.083l-7.6-18.572a3.13,3.13,0,0,1,2.089-4.209l9.851-2.63a3.131,3.131,0,0,0,2.089-4.21Z" fill="#55affc"></path>
      <path d="M158.854,326.467s11.87-9.658,14.006-6.674c0,0,6.729,9.1,5.951,11.69-1.174,3.913-15.249,10.63-15.249,10.63Z" fill="#EDA59F"></path>
    </g>
    <path d="M153.245,696.7l-20.853-2.481c.939-7.892,2-17.373,2.072-18.927,0,.1,0,.181,0,.245h21C155.459,676.168,155.459,678.084,153.245,696.7Z" fill="#EDA59F"></path>
    <path d="M138.671,408.035l.651,2.82c.2.92.455,1.935.587,2.735.308,1.678.643,3.4.919,5.038l.794,4.808.708,4.7c.922,6.239,1.695,12.328,2.458,18.418l4.478,36.179c1.437,12.008,2.99,23.969,4.488,35.927l4.767,35.792.084.632a16.389,16.389,0,0,1,.13,1.878l.2,33.126c.135,11.041.2,22.083.409,33.122q.235,16.561.639,33.119l.468,16.556.237,8.279.306,8.277-36.994.63.024-8.283-.045-8.281-.1-16.563q-.187-16.561-.489-33.121c-.171-11.04-.48-22.078-.721-33.117l-.93-33.113.214,2.51-6.1-35.766c-2.075-11.9-4.067-23.805-6.208-35.656-2.095-11.855-4.277-23.674-6.577-35.35-1.19-5.813-2.392-11.625-3.675-17.246l-.967-4.19-1-4.06-1.068-3.788c-.176-.676-.357-1.108-.53-1.648l-.514-1.55Z" fill="#55affc"></path>
    <path d="M69.569,699.212l-21-.068s.071-21.685.071-23.605h21C69.64,677.465,69.569,699.212,69.569,699.212Z" fill="#EDA59F"></path>
    <polygon points="61.546 398.088 58.586 447.793 144.076 446.789 137.623 402.784 61.546 398.088" fill="#55affc"></polygon>
    <polygon points="104.555 439.517 103.9 447.718 103.195 455.676 101.744 471.513 98.742 503.064 92.588 566.067 80.026 691.994 43.157 688.878 51.618 562.695 55.717 499.622 57.685 468.122 58.61 452.425 59.048 444.613 59.406 437.035 104.555 439.517" fill="#55affc"></polygon>
    <path d="M95.1,707.334a4.107,4.107,0,0,0,4.076-4.427h0a4.108,4.108,0,0,0-2.658-3.529l-24.443-8.187a3.461,3.461,0,0,0-2.872.32,19.112,19.112,0,0,1-11.468,3.4,17.038,17.038,0,0,1-8.821-3.222,1.546,1.546,0,0,0-2.527,1.2v11.952a2.678,2.678,0,0,0,2.689,2.678Z" fill="#c1d8ed"></path>
    <path d="M178.832,707.334a4.108,4.108,0,0,0,4.076-4.427h0a4.109,4.109,0,0,0-2.659-3.529l-24.442-8.187a3.463,3.463,0,0,0-2.873.32,19.112,19.112,0,0,1-11.468,3.4,17.035,17.035,0,0,1-8.82-3.222,1.546,1.546,0,0,0-2.527,1.2v11.952a2.678,2.678,0,0,0,2.689,2.678Z" fill="#c1d8ed"></path>
    <path d="M84.187,294.93s7.618-4.31,5.316-25.312l15.889-3.4s-1.278,18.921,6.965,24.691Z" fill="#EDA59F"></path>
    <g opacity="0.15">
      <path d="M108.977,287.056l-13.545-9.787,10.418-.393A28.727,28.727,0,0,0,108.977,287.056Z"></path>
    </g>
    <path d="M141.691,405.706c-4.189,9.63-86.519,13.63-87.619-3.31-.7-10.78,8.8-20.19,8.8-41.2s-19.33-47.84-3.58-63.59c4.571-4.57,12.461-7.52,22.08-7.53.721,5.61,10.261,15.14,22.561,14.33,9.23-.61,12.22-8.7,12.48-14.2,1.3.02,2.31.04,2.939.07,33.181,1.43,18.6,39.19,18.281,66.93C137.242,389.666,146.012,395.786,141.691,405.706Z" fill="#2f3235"></path>
    <path d="M80.218,261.7c1.281,6.356,4.931,12.308,10.62,14.217a40.5,40.5,0,0,0,19.422,2.085c17.444-1.912,12.9-41.57,4.387-49.065S81.909,227,79.3,240C77.949,246.721,79,255.655,80.218,261.7Z" fill="#EDA59F"></path>
    <path d="M106.035,266.042s5.363.417,9.074-.995c0,0,.067,3.523-4.154,3.985S106.035,266.042,106.035,266.042Z" fill="#fff"></path>
    <path d="M91.529,244.837c2.321,29.094-1.595,32.211-1.595,32.211s-14.8-8.357-17.176-25.8c-2.231-16.354,9.592-26.369,17.708-28.419,30.844-7.788,35.042,20.373,35.042,20.373-15.424,4.417-37.322,2.311-37.322,2.311" fill="#0f1011"></path>
    <path d="M97.615,258.4A6.143,6.143,0,1,1,85.4,259.742a6.042,6.042,0,0,1,5.437-6.776C95.213,252.7,97.246,255.031,97.615,258.4Z" fill="#EDA59F"></path>
    <circle cx="65.548" cy="237.946" r="14.006" fill="#0f1011"></circle>
    <path d="M116.412,290.206c-.26,5.5-3.25,13.59-12.48,14.2-12.3.81-21.84-8.72-22.561-14.33H81.4C93.512,290.076,109.351,290.1,116.412,290.206Z" fill="#EDA59F"></path>
    <path d="M103.786,379.346a10.9,10.9,0,0,1-9.075-4.847L55.3,315.5l18.131-12.112,33.638,50.351L157.94,323.12,169.184,341.8,109.4,377.783A10.851,10.851,0,0,1,103.786,379.346Z" fill="#2f3235"></path>
    <g opacity="0.15">
      <path d="M111.689,262.511a.5.5,0,0,1-.16-.974l2.922-.985-2.187-4.532a.5.5,0,1,1,.9-.435l2.432,5.043a.5.5,0,0,1,.011.411.5.5,0,0,1-.3.28l-3.458,1.166A.5.5,0,0,1,111.689,262.511Z"></path>
    </g>
    <path d="M228.255,317.707a3.448,3.448,0,0,1-.49.95c-1.3,1.29-5.678,2.855-6.97,2.2-2.1-1.064-5.519-7.64-6.109-10.45-.55-2.63,4.1-4.41,4.7-4.66a.322.322,0,0,0,.06-.02c1.31-.42,2.35-.42,2.86.29C222.305,306.017,229.035,315.107,228.255,317.707Z" fill="#EDA59F"></path>
    <g>
      <rect x="94.69" y="241.067" width="34.903" height="18.997" rx="1.843" transform="translate(-26.629 13.708) rotate(-6.254)" fill="#d7e8f4"></rect>
      <rect x="99.655" y="240.523" width="34.903" height="18.997" rx="1.843" transform="translate(-26.54 14.246) rotate(-6.254)" fill="#55affc"></rect>
      <rect x="72.829" y="251.363" width="24.973" height="4" transform="translate(-38.128 16.228) rotate(-8.89)" fill="#d7e8f4"></rect>
    </g>
  </g>
</svg>