<svg id="Layer_1" data-name="Layer 1" xmlns="http://www.w3.org/2000/svg" viewBox="0 0 1377.075 700.95">
  <path d="M76.107,700.95c-50.035,0-86.35-47.43-73.5-95.789C23.114,527.947,81.87,424.422,246.1,375.32,464.228,310.105,452,47.241,626.222,47.241S801.361,180.735,853.3,194.311s226.069-26.74,264.964,92.263c71.9,219.978,168.408,113.932,243.3,283.331a298.287,298.287,0,0,1,12.078,32.583c15.091,48.918-21.545,98.462-72.738,98.462Z" fill="#f3f5fd"></path>
  <g>
    <rect x="575.715" y="516.601" width="142.85" height="161.701" fill="#dee8f5"></rect>
    <rect x="575.715" y="516.601" width="142.85" height="113.702" fill="#c1d8ed"></rect>
    <rect x="271.893" width="750.494" height="595.693" rx="27.571" fill="#dee8f5"></rect>
    <rect x="288.988" y="18.807" width="716.303" height="497.245" rx="12.188" fill="#fff"></rect>
    <path d="M1005.292,30.993V503.865a12.19,12.19,0,0,1-12.19,12.19H448.446V18.8H993.1A12.19,12.19,0,0,1,1005.292,30.993Z" fill="#fff"></path>
    <g opacity="0.57">
      <rect x="872.927" y="33.19" width="102.992" height="102.992" fill="#dee8f5"></rect>
    </g>
    <g opacity="0.57">
      <rect x="872.927" y="154.318" width="102.992" height="102.992" fill="#dee8f5"></rect>
    </g>
    <g opacity="0.57">
      <rect x="872.927" y="276.574" width="102.992" height="102.992" fill="#dee8f5"></rect>
    </g>
    <g opacity="0.57">
      <rect x="872.927" y="398.83" width="102.992" height="102.992" fill="#dee8f5"></rect>
    </g>
    <g opacity="0.57">
      <path d="M456.943,18.8V516.055H301.175a12.189,12.189,0,0,1-12.189-12.19V30.993A12.189,12.189,0,0,1,301.175,18.8Z" fill="#dee8f5"></path>
    </g>
    <rect x="512.041" y="663.811" width="270.199" height="37.139" rx="18.57" fill="#dee8f5"></rect>
    <g>
      <path d="M418.561,111.388a45.6,45.6,0,1,1-45.6-45.6A45.461,45.461,0,0,1,418.561,111.388Z" fill="#dee8f5"></path>
      <circle cx="372.964" cy="98.035" r="18.051" fill="#fff"></circle>
      <path d="M405.822,143.005a45.6,45.6,0,0,1-65.716,0c6.148-13.74,18.56-23.13,32.858-23.13S399.674,129.265,405.822,143.005Z" fill="#fff"></path>
    </g>
    <g>
      <rect x="312.445" y="205.814" width="121.039" height="13.15" fill="#fff"></rect>
      <rect x="312.445" y="241.602" width="121.039" height="13.15" fill="#fff"></rect>
      <rect x="312.445" y="277.39" width="121.039" height="13.15" fill="#fff"></rect>
      <rect x="312.445" y="313.178" width="121.039" height="13.15" fill="#fff"></rect>
    </g>
    <g opacity="0.57">
      <rect x="476.702" y="33.19" width="370.226" height="203.729" fill="#dee8f5"></rect>
    </g>
    <g>
      <g opacity="0.57">
        <rect x="476.702" y="254.752" width="370.226" height="12.678" fill="#dee8f5"></rect>
      </g>
      <g opacity="0.57">
        <rect x="476.702" y="411.434" width="370.226" height="12.678" fill="#dee8f5"></rect>
      </g>
      <g opacity="0.57">
        <rect x="476.702" y="286.088" width="370.226" height="12.678" fill="#dee8f5"></rect>
      </g>
      <g opacity="0.57">
        <rect x="476.702" y="317.425" width="370.226" height="12.678" fill="#dee8f5"></rect>
      </g>
      <g opacity="0.57">
        <rect x="476.702" y="348.761" width="370.226" height="12.678" fill="#dee8f5"></rect>
      </g>
      <g opacity="0.57">
        <rect x="476.702" y="380.098" width="370.226" height="12.678" fill="#dee8f5"></rect>
      </g>
    </g>
    <g opacity="0.57">
      <rect x="593.177" y="446.612" width="137.275" height="36.364" fill="#dee8f5"></rect>
    </g>
  </g>
  <path d="M214.772,700.95H54.1c-11.786-9.406-12.6-30.6-.383-40.061,9.416-7.293,23.651-5.343,32.5,2.244a31.394,31.394,0,0,1-.095-17.312c2.879-10.2,9.275-20.568,19.043-24.694,24.924-10.517,42.635,11.518,46.184,23.839,6.381-9.385,20.658-14.344,29.618-8.027,11.35,8,10.837,20.616,1.782,29.67,12.064-2.249,21.15-.514,29.518,8.467C218.642,681.913,219.617,693.563,214.772,700.95Z" fill="#8ddbe0"></path>
  <path d="M1311.859,700.95H1093c-16.055-12.813-17.162-41.68-.521-54.571,12.827-9.935,32.217-7.278,44.272,3.056a42.757,42.757,0,0,1-.128-23.582c3.92-13.9,12.634-28.018,25.939-33.638,33.952-14.327,58.078,15.69,62.913,32.474,8.692-12.784,28.139-19.54,40.344-10.934,15.462,10.9,14.763,28.082,2.429,40.416,16.433-3.064,28.81-.7,40.209,11.534C1317.13,675.018,1318.458,690.887,1311.859,700.95Z" fill="#8ddbe0"></path>
  <g>
    <path d="M171.009,289.485s7.733-4.1,6.006-25.156l15.976-2.963s-1.8,18.879,6.288,24.873Z" fill="#EDA59F"></path>
    <g opacity="0.15">
      <path d="M196.005,282.292l-13.272-10.154,10.424-.108A28.741,28.741,0,0,0,196.005,282.292Z"></path>
    </g>
    <path d="M167.95,256.164c1.106,6.388,4.592,12.438,10.228,14.5,6.689,2.45,11.644,2.616,19.357,2.616,10.525,0,10.177-10.977,10.473-22.038.3-11.106-.586-23.019-4.746-26.889-8.3-7.724-32.673-2.832-35.638,10.088C166.091,241.124,166.9,250.083,167.95,256.164Z" fill="#EDA59F"></path>
    <path d="M213.649,230.775s4.311-.963,3.131-5.261c-.783-2.851-4.435-2.218-4.435-2.218s3.458-.633,3.458-3.652c0-1.9-1.461-5.124-5.871-3.282-5.174,2.161-11.074,1.883-15.561,1.129a51.715,51.715,0,0,0-7.707-1.088l-.013,0v0a29.658,29.658,0,0,0-8.814,1.179c-8.02,2.4-20.158,9.59-17.578,25.893,2.88,18.194,11.418,25.152,15.174,27.384a1.712,1.712,0,0,0,2.518-.957c1.065-3.41,2.9-11.99,2.388-29.682,24.652-1.209,31.744-1.576,31.744-1.576s5.8.218,5.8-4.022S213.649,230.775,213.649,230.775Z" fill="#0f1011"></path>
    <g>
      <circle cx="192.969" cy="249.794" r="1.449" fill="#0f1011"></circle>
      <circle cx="204.4" cy="248.857" r="1.449" fill="#0f1011"></circle>
      <path d="M206.911,245.769H206.9l-3.839-.049a.68.68,0,0,1-.672-.689.7.7,0,0,1,.69-.672l3.838.048a.681.681,0,0,1-.008,1.362Z" fill="#0f1011"></path>
      <path d="M189.84,247.169a.681.681,0,0,1-.158-1.344l3.785-.91a.681.681,0,1,1,.319,1.324L190,247.15A.745.745,0,0,1,189.84,247.169Z" fill="#0f1011"></path>
    </g>
    <path d="M185.431,253.34a6.143,6.143,0,1,1-12.244,1,6.041,6.041,0,0,1,5.62-6.625C183.185,247.577,185.154,249.958,185.431,253.34Z" fill="#EDA59F"></path>
    <g opacity="0.15">
      <path d="M199.4,257.831a.5.5,0,0,1-.147-.978l2.947-.905-2.062-4.59a.5.5,0,1,1,.912-.411l2.294,5.107a.5.5,0,0,1-.309.683l-3.489,1.072A.488.488,0,0,1,199.4,257.831Z"></path>
    </g>
    <path d="M193.639,261.206s5.349.564,9.1-.746c0,0-.03,3.522-4.262,3.869S193.639,261.206,193.639,261.206Z" fill="#fff"></path>
  </g>
  <g>
    <g>
      <path d="M277.853,289.558s.15-12.01,8.735-11.386c5.416.394,31.151-.8,31.534,1.544.948,5.8-22.592,7.218-24.728,12.622Z" fill="#EDA59F"></path>
      <path d="M283.548,278.557s11.949-3.894,14.886-3.2c2.6.618-2.82,4.85-2.82,4.85Z" fill="#EDA59F"></path>
    </g>
    <g>
      <rect x="256.929" y="669.036" width="21" height="23.639" transform="translate(-224.809 139.76) rotate(-20.849)" fill="#EDA59F"></rect>
      <path d="M305.243,700.763a4.107,4.107,0,0,0,4.076-4.427h0a4.108,4.108,0,0,0-2.658-3.529l-24.443-8.187a3.461,3.461,0,0,0-2.872.32,19.112,19.112,0,0,1-11.468,3.4,17.031,17.031,0,0,1-8.82-3.222,1.547,1.547,0,0,0-2.528,1.2v11.952a2.678,2.678,0,0,0,2.689,2.678Z" fill="#c1d8ed"></path>
      <path d="M183.438,692.641l-21-.068s.07-21.685.07-23.605h21C183.508,670.894,183.438,692.641,183.438,692.641Z" fill="#EDA59F"></path>
      <path d="M222.539,401.464l-.267.079-.781-5.33-76.077-4.7s-2.177,37.26-2.177,49.7c0,37.836,8.629,162.428,13.747,243.6l36.951-1.892c-2.456-79.083-6.6-158.27-6.831-237.367,21.787,80.031,43.529,160.841,61.255,241.885l36.009-8.5S240.855,491.084,222.539,401.464Z" fill="#55affc"></path>
      <path d="M208.966,700.763a4.107,4.107,0,0,0,4.076-4.427h0a4.108,4.108,0,0,0-2.658-3.529l-24.443-8.187a3.461,3.461,0,0,0-2.872.32,19.112,19.112,0,0,1-11.468,3.4,17.031,17.031,0,0,1-8.82-3.222,1.547,1.547,0,0,0-2.528,1.2v11.952a2.678,2.678,0,0,0,2.689,2.678Z" fill="#c1d8ed"></path>
      <g>
        <path d="M227.559,399.56c-4.189,9.63-81.327,13.63-82.427-3.31-.7-10.78,8.721-20.19,8.721-41.2s-19.373-42.769-3.623-58.519c4.57-4.57,7.39-12.591,17.01-12.6.72,5.61,34.78,5.63,35.04.13,1.3.02,2.31.04,2.94.07,33.18,1.43,15.474,39.19,15.154,66.93C219.984,383.52,231.88,389.64,227.559,399.56Z" fill="#fff"></path>
        <path d="M202.28,284.06c-.26,5.5-3.25,13.59-12.48,14.2-12.3.81-21.84-8.72-22.56-14.33h.03C179.38,283.93,195.22,283.95,202.28,284.06Z" fill="#EDA59F"></path>
        <path d="M276.844,282.541,255.437,322.51l-32.961-32.154c-2.975-3.777-7.663-6.131-14.831-6.445-.545-.024-6.168-.2-6.5.133-2.01,2.01-3.119,37.424-2.119,57.1,1.092,21.3-.031,47.9.985,63.192a7.268,7.268,0,0,0,8.333,6.713c10.782-1.648,19.189-4.457,20.416-7.273,4.319-9.92-5.65-20.262-5.26-52.722.1-8.736,1.583-18.5,2.617-27.813l24.652,24.049a10.5,10.5,0,0,0,16.588-2.559l28-52.28Z" fill="#2f3235"></path>
        <path d="M245.2,358.43l-55.733,1.7-11.942-24.99c-1.927-19.145-4.479-35.461-5.65-44.02-1.5-7.927-.7-7.366-4.462-7.369-9.62.01-17.687,3.137-22.257,7.707-15.75,15.75,3.58,42.59,3.58,63.59s-9.5,30.42-8.8,41.2c.431,6.733,3.873,15.25,29.824,17.076a8.22,8.22,0,0,0,8.735-7.2,224.41,224.41,0,0,0,1.454-24.35,10.857,10.857,0,0,0,2.743.369c.111,0,.223,0,.334,0l62.838-1.917Z" fill="#2f3235"></path>
        <path d="M164.758,307.668l2.48-8.13-4.78-3.13,3.929-12.63a58.033,58.033,0,0,1,7.211.15c2.36,7.89,4.9,41.77,5.82,55Z" fill="#2f3235"></path>
        <path d="M206.158,299.538l3.7,12.13-10.69,32.58s-2.13-49.22.7-60.25a25.373,25.373,0,0,1,3.008-.226c2.054-.029,4.165.111,4.165.111l3.9,12.525Z" fill="#2f3235"></path>
        <g opacity="0.24">
          <path d="M164.758,307.668l2.48-8.13-4.78-3.13,3.929-12.63a58.033,58.033,0,0,1,7.211.15c2.36,7.89,4.9,41.77,5.82,55Z" fill="#fff"></path>
        </g>
        <g opacity="0.24">
          <path d="M206.158,299.538l3.7,12.13-10.69,32.58s-2.13-49.22.7-60.25a25.373,25.373,0,0,1,3.008-.226c2.054-.029,4.165.111,4.165.111l3.9,12.525Z" fill="#fff"></path>
        </g>
        <g>
          <g>
            <path d="M240.721,306.446l-12.143,50.971a5.4,5.4,0,0,0,5.252,6.65h71.584a5.4,5.4,0,0,0,5.206-3.97l13.991-50.971A5.4,5.4,0,0,0,319.4,302.3H245.973A5.4,5.4,0,0,0,240.721,306.446Z" fill="#9ebcea"></path>
            <rect x="199.923" y="357.722" width="92.863" height="6.344" rx="3.172" fill="#9ebcea"></rect>
          </g>
          <circle cx="279.526" cy="332.679" r="8.466" fill="#fff"></circle>
        </g>
        <path d="M263.222,370.757c-4.49,2.77-11.44,4.08-17.5,4.56l-.341-11.04c2.851-.08,7.231-.38,11.52-.21,1.939-1.581,3.055-2.051,5.044-4.04,2.119-2.118,7.677-3.39,8.726,0S267.162,368.317,263.222,370.757Z" fill="#EDA59F"></path>
      </g>
    </g>
  </g>
  <path d="M1104.52,409.024c-6.965,95.062-15.907,190.144-28.644,284.617l-20.373-1.887c4.833-95.2,13.509-190.313,24.124-285.036Z" fill="#EDA59F"></path>
  <path d="M1146.9,430.616c2.776,73.518,9.778,185.006,13.817,259.411l-20.364,1.94c-9.644-74.96-24.81-185.074-33.076-259.173Z" fill="#EDA59F"></path>
  <path d="M1113.968,700.763a4.107,4.107,0,0,1-4.076-4.427h0a4.108,4.108,0,0,1,2.658-3.529l24.443-8.187a3.461,3.461,0,0,1,2.872.32,19.112,19.112,0,0,0,11.468,3.4,17.031,17.031,0,0,0,8.82-3.222,1.547,1.547,0,0,1,2.528,1.2v11.952a2.678,2.678,0,0,1-2.689,2.678Z" fill="#c1d8ed"></path>
  <path d="M1030.234,700.763a4.107,4.107,0,0,1-4.076-4.427h0a4.107,4.107,0,0,1,2.659-3.529l24.442-8.187a3.46,3.46,0,0,1,2.872.32,19.114,19.114,0,0,0,11.468,3.4,17.035,17.035,0,0,0,8.821-3.222,1.546,1.546,0,0,1,2.527,1.2v11.952a2.678,2.678,0,0,1-2.689,2.678Z" fill="#c1d8ed"></path>
  <path d="M1147.52,391.517s11.36,50.871,11.36,93.654,13.043,109.043,13.043,109.043-37.48-7.826-62.044,0-70.37-6.26-70.37-6.26l31.934-191.741Z" fill="#55affc"></path>
  <path d="M1034.168,271.255l-.465.2,5.816.938-5.709,10.9s-21.173,4.955-31.08-6.191a1.888,1.888,0,0,1,1.6-3.131c5.709.58,15.891,1.269,20.476-.539-2.016-.99-4.691-2.506-4.271-3.413C1021.641,267.641,1031.226,270.781,1034.168,271.255Z" fill="#EDA59F"></path>
  <rect x="920.869" y="150.9" width="123.05" height="124.118" fill="#fdb754"></rect>
  <path d="M971.416,271.255l-.465.2,5.817.938-5.71,10.9s-21.173,4.955-31.08-6.191a1.888,1.888,0,0,1,1.6-3.131c5.71.58,15.891,1.269,20.476-.539-2.016-.99-4.691-2.506-4.271-3.413C958.889,267.641,968.474,270.781,971.416,271.255Z" fill="#EDA59F"></path>
  <g>
    <g>
      <path d="M1124.164,287.5s-8.041-3.455-8.041-24.582l-16.165-1.647s3.331,18.669-4.234,25.3Z" fill="#EDA59F"></path>
      <path d="M1124.49,254.037c-.58,6.457-3.56,12.771-9.008,15.289a40.5,40.5,0,0,1-19.079,4.188c-17.549,0-17.35-39.918-9.706-48.3s32.332-5.493,36.343,7.141C1125.114,238.9,1125.042,247.89,1124.49,254.037Z" fill="#EDA59F"></path>
    </g>
    <path d="M1087.621,241.433a66.968,66.968,0,0,1-10.167-.857s1.029-25.923,28.559-24.445a51.242,51.242,0,0,1,10.687.631c8.275,1.268,20.006,9.728,21.9,30.9.868,9.713,4.216,18.87,6.771,24.666a4.472,4.472,0,0,1-4.084,6.286l-58.979-.467a4.467,4.467,0,0,1-4.281-5.759C1081.233,261.761,1087.1,255.25,1087.621,241.433Z" fill="#0f1011"></path>
  </g>
  <path d="M1148.6,291.456c-4.568-4.569-12.479-7.526-22.116-7.526-14.343,0-33.935.031-37.949.2a31.861,31.861,0,0,0-7.715,1.2l-.1-.2-1.929.909a19.4,19.4,0,0,0-2.01.946l-11.979,5.64-26.863-22.254-13.91,16.791,18.979,15.723-12.348,5.813-53.205-38.393-12.759,17.681,58.414,42.153a10.9,10.9,0,0,0,11.023,1.023l27.424-12.91,6.086,5.041c.992,9.282,2.509,19.018,2.611,27.758.384,32.468-8.383,38.583-4.063,48.509,4.195,9.625,86.523,13.629,87.623-3.316.7-10.777-8.8-20.191-8.8-41.195S1164.356,307.207,1148.6,291.456Z" fill="#2f3235"></path>
</svg>