<svg id="Layer_1" data-name="Layer 1" xmlns="http://www.w3.org/2000/svg" viewBox="0 0 1143.803 698.079">
  <path d="M1092.031,679.685a49.749,49.749,0,0,0,49.005-41.294c9.688-55.9,1.291-160.774-148.378-265.559C848.352,271.8,913.438-19.082,606.826.989S329.448,236.029,141.442,334.557C7.587,404.707-3.774,549.914.787,627.742a55.114,55.114,0,0,0,55,51.943Z" fill="#f3f5fd"></path>
  <path d="M1075.406,679.685H914.738c-11.787-9.406-12.6-30.6-.383-40.061,9.416-7.293,23.651-5.342,32.5,2.244a31.394,31.394,0,0,1-.1-17.312c2.879-10.2,9.275-20.568,19.042-24.694,24.925-10.517,42.636,11.519,46.185,23.84,6.381-9.385,20.657-14.345,29.617-8.027,11.351,8,10.838,20.615,1.783,29.669,12.064-2.249,21.15-.514,29.518,8.468C1079.276,660.648,1080.251,672.3,1075.406,679.685Z" fill="#dee8f5"></path>
  <g>
    <g>
      <rect x="451.467" y="102.998" width="313.451" height="568.772" rx="34.026" fill="#fff"></rect>
      <path d="M730.892,680.593h-245.4a42.9,42.9,0,0,1-42.85-42.85V137.024a42.9,42.9,0,0,1,42.85-42.849h245.4a42.9,42.9,0,0,1,42.85,42.849V637.743A42.9,42.9,0,0,1,730.892,680.593Zm-245.4-568.772a25.232,25.232,0,0,0-25.2,25.2V637.743a25.232,25.232,0,0,0,25.2,25.2h245.4a25.231,25.231,0,0,0,25.2-25.2V137.024a25.232,25.232,0,0,0-25.2-25.2Z" fill="#dee8f5"></path>
    </g>
    <path d="M554.462,103H661.924a0,0,0,0,1,0,0v20.849a15.607,15.607,0,0,1-15.607,15.607h-76.25a15.607,15.607,0,0,1-15.607-15.607V103A0,0,0,0,1,554.462,103Z" fill="#dee8f5"></path>
  </g>
  <path d="M338.833,294.4s-10.444-9.405-11.026-12.588,7.534-8.866,7.534-8.866-2.078-2.372-4.091-5.052c-2.322-3.092-4.557-6.593-3.408-7.33,1.107-.711,3.838,1.92,6.558,5.1,3.5,4.09,6.974,9.092,6.974,9.092s-1.351-5.531.772-5.756c.873-.092,1.5.8,2.618,4.721,1.269,4.471,3.939,11.245,3.939,11.245Z" fill="#EDA59F"></path>
  <path d="M359.735,346.54a10.9,10.9,0,0,1-10.1-6.8l-19.6-48.266,20.2-8.2,5.934,14.613,4.657-23.278,21.381,4.277-11.784,58.894a10.9,10.9,0,0,1-9.666,8.715C360.42,346.524,360.076,346.54,359.735,346.54Z" fill="#2f3235"></path>
  <path d="M324.354,307.409l12.121-1.934a3.428,3.428,0,0,0,2.762-4.305L331.61,273.8a3.428,3.428,0,0,0-3.842-2.465l-12.121,1.934a3.428,3.428,0,0,0-2.762,4.305l7.627,27.372A3.428,3.428,0,0,0,324.354,307.409Z" fill="#c1d8ed"></path>
  <path d="M434.185,553.52c-18.177-4.592-19.965-5.277-20.553-5.5l7.508-19.612c-.059-.023-.136-.052-.23-.084,1.478.488,10.711,2.89,18.418,4.836Z" fill="#EDA59F"></path>
  <path d="M433.368,580.948a4.107,4.107,0,0,1-5.494,2.456h0a4.105,4.105,0,0,1-2.5-3.643l.014-25.777a3.459,3.459,0,0,1,1.216-2.621,19.109,19.109,0,0,0,6.873-9.791,17.034,17.034,0,0,0-.249-9.387,1.547,1.547,0,0,1,1.943-2.014l11.331,3.8a2.679,2.679,0,0,1,1.684,3.4Z" fill="#c1d8ed"></path>
  <path d="M384.424,670.953s-.071-21.748-.071-23.674h21c0,1.92.071,23.606.071,23.606Z" fill="#EDA59F"></path>
  <path d="M439.448,369.829c-13.475-13.474-76.077,4.695-76.077,4.695l-.058.391-1.282-.72c-15.923,32.007-38.468,79.9-54.072,112.526a18.539,18.539,0,0,0,8.8,25.619l68.15,30.321c-3.5,38.439-7.517,76.846-10.863,115.225l36.715,4.582c6.672-45.786,13.533-91.519,19.66-137.362l1-2.248-.658-.293c3.757-28.243,7.228-56.529,10.194-84.9.571-5.769,1.073-12.043,1.32-18.142C442.275,419.526,446.7,377.078,439.448,369.829Zm-88.565,117.2c13.138-21.9,28.594-47.709,41.976-69.614-.686,28.763-2.391,57.506-4.631,86.229Z" fill="#55affc"></path>
  <g>
    <path d="M415.361,268.385s-7.733-4.1-6.006-25.156l-15.977-2.963s1.8,18.879-6.287,24.872Z" fill="#EDA59F"></path>
    <g opacity="0.15">
      <path d="M390.365,261.192l13.272-10.154-10.424-.108A28.761,28.761,0,0,1,390.365,261.192Z"></path>
    </g>
    <path d="M418.42,235.064c-1.106,6.388-4.593,12.438-10.228,14.5-6.689,2.45-11.644,2.616-19.357,2.616-10.526,0-10.178-10.977-10.473-22.039-.3-11.1.586-23.018,4.746-26.888,8.3-7.724,32.673-2.833,35.637,10.087C420.279,220.023,419.472,228.983,418.42,235.064Z" fill="#EDA59F"></path>
    <path d="M408.609,248.959c.332,1.063.564,1.526,1.521.957,3.756-2.231,12.209-7.088,15.089-25.282,2.581-16.3-7.476-23.026-15.5-25.425-6.913-2.068-23.047-2.494-30.619,2.07-6.525,3.933,0,13.081,0,13.081,2.884.133,3.465,2.612,10.269,2.612,5.26,0,8.68-2.351,13.605-2.144,4.508.19,5.434,2.938,5.274,4.7C407.282,230.21,407.435,245.2,408.609,248.959Z" fill="#0f1011"></path>
    <g>
      <circle cx="393.401" cy="228.694" r="1.449" fill="#0f1011"></circle>
      <circle cx="381.97" cy="227.756" r="1.449" fill="#0f1011"></circle>
      <path d="M379.459,224.668a.681.681,0,0,1-.008-1.361l3.838-.048a.669.669,0,0,1,.689.672.68.68,0,0,1-.672.689l-3.839.048Z" fill="#0f1011"></path>
      <path d="M396.528,226.067a.669.669,0,0,1-.159-.018l-3.785-.91a.681.681,0,0,1,.319-1.324l3.784.91a.68.68,0,0,1-.159,1.342Z" fill="#0f1011"></path>
    </g>
    <path d="M400.939,232.239a6.143,6.143,0,0,0,12.244,1,6.041,6.041,0,0,0-5.62-6.624C403.185,226.476,401.216,228.858,400.939,232.239Z" fill="#EDA59F"></path>
    <g opacity="0.15">
      <path d="M386.969,236.731a.47.47,0,0,1-.147-.023l-3.488-1.071a.5.5,0,0,1-.309-.683l2.293-5.107a.5.5,0,0,1,.912.41l-2.061,4.591,2.947.9a.5.5,0,0,1-.147.978Z"></path>
    </g>
    <path d="M392.731,240.105s-5.349.564-9.1-.746c0,0,.03,3.523,4.262,3.87S392.731,240.105,392.731,240.105Z" fill="#fff"></path>
  </g>
  <path d="M343.875,300.235l-7.149,9.7s-19.216-3.852-21.018-18.655c-.208-1.7-.028-6.42,2.083-5.788,5.5,1.649,12.344,10.088,17.143,11.21-1.094-1.961-2.431-4.73-1.569-5.236C335.631,290.134,341.726,298.17,343.875,300.235Z" fill="#EDA59F"></path>
  <path d="M440.518,269.77c-4.57-4.57-12.46-7.52-22.08-7.53-.72,5.61-34.78,5.63-35.04.13-1.3.02-2.31.04-2.94.07-23.118,1-23.05,19.629-20.775,40.221l-19.022-8.389-8.8,19.949,30.274,13.352c.019.6.035,1.2.042,1.8.39,32.46-8.38,38.58-4.06,48.5,4.19,9.63,86.52,13.63,87.62-3.31.7-10.78-8.8-20.19-8.8-41.2S456.268,285.52,440.518,269.77Z" fill="#2f3235"></path>
  <path d="M358.92,679.5a4.108,4.108,0,0,1-4.076-4.427h0a4.106,4.106,0,0,1,2.658-3.529l24.443-8.187a3.461,3.461,0,0,1,2.872.319,19.1,19.1,0,0,0,11.468,3.4,17.031,17.031,0,0,0,8.82-3.222,1.547,1.547,0,0,1,2.528,1.2v11.952a2.678,2.678,0,0,1-2.689,2.678Z" fill="#c1d8ed"></path>
  <g>
    <g>
      <g>
        <path d="M780.474,673.455c-1.9-.319-23.332-3.979-23.332-3.979l3.536-20.7s21.379,3.653,23.273,3.97Z" fill="#EDA59F"></path>
        <path d="M744.914,693.311a4.108,4.108,0,0,0,3.693,4.752h0a4.109,4.109,0,0,0,3.92-2.039l12.112-22.755a3.461,3.461,0,0,0,.159-2.885,19.1,19.1,0,0,1-1.46-11.872,17.029,17.029,0,0,1,4.635-8.167,1.546,1.546,0,0,0-.767-2.691l-11.788-1.975a2.679,2.679,0,0,0-3.086,2.21Z" fill="#c1d8ed"></path>
      </g>
      <path d="M846.833,617.468c17.814.732,37.63,1.112,55.587,1.425a22.2,22.2,0,0,1,2.277,44.231l-134.4,16.32-5.476-39.721,133.8-20.654,3.632,44.256c-18.035,1.172-37.352,2.4-55.422,3.143Z" fill="#55affc"></path>
      <g>
        <path d="M880.737,664.757c-18.553-2.7-20.4-3.194-21.01-3.358l5.45-20.281c-.061-.015-.14-.037-.237-.058,1.52.332,10.952,1.771,18.818,2.916Z" fill="#EDA59F"></path>
        <path d="M903.915,682.808a4.109,4.109,0,0,1-2.724,5.366h0a4.108,4.108,0,0,1-4.236-1.258l-16.211-20.042a3.467,3.467,0,0,1-.7-2.8,19.109,19.109,0,0,0-.82-11.933,17.026,17.026,0,0,0-6.1-7.139,1.547,1.547,0,0,1,.242-2.788l11.2-4.176a2.679,2.679,0,0,1,3.449,1.584Z" fill="#c1d8ed"></path>
      </g>
      <path d="M816.991,662.867c-22.379-1.781-45.085-2.489-67.526-2.891l1.949-40.409c41.956,5.7,84.486,11.1,126.661,15.007l-4.648,39.831c-41.945-5.913-84.569-10.448-126.713-14.562-24.521-2.2-23.693-39.079.7-40.338,22.829-1.3,45.9-2.915,68.611-5.628Z" fill="#55affc"></path>
      <polygon points="867.268 611.333 870.228 661.038 784.738 660.034 791.191 616.029 867.268 611.333" fill="#55affc"></polygon>
    </g>
    <path d="M762.512,604.74a10.5,10.5,0,0,1-9.8-14.242l20.676-54.223,14.583,5.561,8.608-11.724L813.5,542.54l-42.519,57.913A10.5,10.5,0,0,1,762.512,604.74Z" fill="#2f3235"></path>
    <path d="M843.086,516.314s-8.042-3.454-8.042-24.582l-16.165-1.647s3.332,18.669-4.234,25.3Z" fill="#EDA59F"></path>
    <g opacity="0.15">
      <path d="M817.585,511.187l12.4-11.2-10.4.744A28.748,28.748,0,0,1,817.585,511.187Z"></path>
    </g>
    <path d="M843.411,482.854c-.58,6.457-3.56,12.772-9.008,15.289a40.5,40.5,0,0,1-19.079,4.188c-17.548,0-17.35-39.917-9.706-48.294s32.333-5.494,36.343,7.141C844.035,467.712,843.964,476.708,843.411,482.854Z" fill="#EDA59F"></path>
    <g>
      <circle cx="817.956" cy="478.55" r="1.449" fill="#0f1011"></circle>
      <circle cx="806.486" cy="478.55" r="1.449" fill="#0f1011"></circle>
      <path d="M803.675,475.68a.681.681,0,0,1-.063-1.359l3.822-.361a.68.68,0,1,1,.127,1.355l-3.821.362Z" fill="#0f1011"></path>
      <path d="M820.8,475.68a.619.619,0,0,1-.105-.008l-3.846-.6a.681.681,0,1,1,.209-1.345l3.846.6a.681.681,0,0,1-.1,1.354Z" fill="#0f1011"></path>
      <path d="M818.22,489.978s-5.284,1-9.128,0c0,0,.317,3.509,4.564,3.509S818.22,489.978,818.22,489.978Z" fill="#fff"></path>
    </g>
    <path d="M830.33,467.319c.862,29.174,5.095,31.846,5.095,31.846s13.8-9.92,14.263-27.52c.436-16.5-12.407-25.167-20.7-26.32-31.508-4.382-32.614,24.068-32.614,24.068,15.813,2.711,37.352-1.768,37.352-1.768" fill="#0f1011"></path>
    <path d="M825.758,481.468a6.143,6.143,0,0,0,12.285,0,6.041,6.041,0,0,0-6.142-6.143C827.526,475.54,825.758,478.075,825.758,481.468Z" fill="#EDA59F"></path>
    <circle cx="845.406" cy="457.639" r="14.006" fill="#0f1011"></circle>
    <g opacity="0.15">
      <path d="M812.162,487.087a.5.5,0,0,1-.108-.012l-3.564-.782a.5.5,0,0,1-.364-.655l1.868-5.278a.5.5,0,0,1,.942.334l-1.679,4.744,3.012.661a.5.5,0,0,1-.107.988Z"></path>
    </g>
    <path d="M889.151,593.473,873.37,530.825a19.766,19.766,0,0,0-5.848-10.549c-4.57-4.57-12.46-7.52-22.08-7.53-.72,5.61-34.78,5.63-35.04.13-1.3.02-2.31.04-2.94.07-33.18,1.43-18.6,30.19-18.28,57.93.39,32.46-8.38,38.58-4.059,48.5,4.189,9.63,86.519,13.63,87.619-3.31.259-3.984-.877-7.783-2.41-12.048l2.933,1.637a10.9,10.9,0,0,0,15.886-12.182Z" fill="#2f3235"></path>
    <path d="M810.4,512.876c.26,5.5,3.25,13.59,12.48,14.2,12.3.81,21.84-8.72,22.56-14.33h-.03C833.3,512.746,817.462,512.766,810.4,512.876Z" fill="#EDA59F"></path>
    <path d="M798.252,531.614c.52.7.08,1.7-2.73,4.66-1.75,1.85-3.889,4.42-5.47,6.36l-14.31-5.46c1.02-4.22,2.651-10.04,4.171-11.36,2.44-2.12,11.47,1.96,11.47,1.96s.98-3,2.26-6.1c1.47-3.57,3.339-7.28,4.56-6.67,1.18.59.309,4.28-1.04,8.24-1.73,5.1-4.26,10.64-4.26,10.64S796.972,529.9,798.252,531.614Z" fill="#EDA59F"></path>
    <g>
      <path d="M799.713,563.055l12.121-1.934a3.428,3.428,0,0,0,2.762-4.3l-7.627-27.372a3.428,3.428,0,0,0-3.841-2.465l-12.122,1.934a3.428,3.428,0,0,0-2.762,4.3l7.627,27.372A3.427,3.427,0,0,0,799.713,563.055Z" fill="#c1d8ed"></path>
      <path d="M819.234,555.881l-7.149,9.7s-19.216-3.852-21.018-18.655c-.208-1.705-.028-6.42,2.083-5.787,5.5,1.648,12.344,10.087,17.144,11.209-1.1-1.961-2.431-4.73-1.57-5.236C810.991,545.78,817.085,553.816,819.234,555.881Z" fill="#EDA59F"></path>
    </g>
  </g>
  <g>
    <polygon points="681.062 587.566 500.573 587.566 480.323 604.566 480.323 474.987 681.062 474.987 681.062 587.566" fill="#c1d8ed"></polygon>
    <polygon points="736.062 447.527 716.573 432.754 535.323 432.754 535.323 313.275 736.062 313.275 736.062 447.527" fill="#dee8f5"></polygon>
    <path d="M480.323,288.774l21.762-16h143V170.2H480.323Z" fill="#c1d8ed"></path>
  </g>
  <path d="M205.845,679.685H45.176c-11.786-9.406-12.6-30.6-.383-40.061,9.417-7.293,23.651-5.342,32.5,2.244a31.394,31.394,0,0,1-.094-17.312c2.878-10.2,9.275-20.568,19.042-24.694,24.925-10.517,42.636,11.519,46.185,23.84,6.381-9.385,20.657-14.345,29.617-8.027,11.351,8,10.837,20.615,1.783,29.669,12.064-2.249,21.15-.514,29.517,8.468C209.714,660.648,210.69,672.3,205.845,679.685Z" fill="#dee8f5"></path>
  <g>
    <g>
      <path d="M177.225,535.177l-29.1,141.915a3.427,3.427,0,0,1-3.325,2.593h0a3.428,3.428,0,0,1-3.325-4.263l29.51-143.554Z" fill="#c1d8ed"></path>
      <path d="M245.587,534.95l29.1,141.916a3.428,3.428,0,0,0,3.325,2.593h0a3.428,3.428,0,0,0,3.325-4.264l-29.51-143.554Z" fill="#c1d8ed"></path>
    </g>
    <rect x="140.714" y="521.297" width="141.384" height="24.913" rx="5.93" fill="#dee8f5"></rect>
  </g>
  <path d="M383.4,262.37c.26,5.5,3.25,13.59,12.48,14.2,12.3.81,21.84-8.72,22.56-14.33h-.03C406.3,262.24,390.458,262.26,383.4,262.37Z" fill="#EDA59F"></path>
  <g>
    <path d="M237.691,459.985c-3.642-1.192-7.38.149-10.957,2.865,4.711-11.9,6.655-22.638-1.4-23.122-5.634-.339-9.951,3.985-13.23,10.13-1.153-10.806-4.129-18.866-10.795-16.194-7.317,2.934-8.43,12.988-7.321,23.507-3.226-5.373-6.694-8.369-9.846-5.219-9.406,9.406,13.682,35.914,13.682,35.914h5.733l3.273,3.552c-.664,1.4-1.025,2.235-1.025,2.235l4.156,8.457S252.81,464.932,237.691,459.985Z" fill="#8ddbe0"></path>
    <polygon points="227.414 521.054 194.963 521.054 189.531 483.172 232.846 483.172 227.414 521.054" fill="#c1d8ed"></polygon>
  </g>
</svg>